# xmcd CD database file
#
# Track frame offsets:
#	150
#	22812
#	45735
#	63980
#	94552
#	124742
#	155022
#	179870
#
# Disc length: 2540 seconds
#
# Revision: 0
# Processed by: cddbd v1.5.2PL0 Copyright (c) Steve Scherf et al.
# Submitted via: CDex 1.70beta2
#
DISCID=6509ea08
DTITLE=Fumio Itabashi - Red Apple
DYEAR=1985
DGENRE=Jazz
TTITLE0=Red Apple
TTITLE1=Beatrice
TTITLE2=Memorys Of You
TTITLE3=I'm Gone
TTITLE4=Mina
TTITLE5=Smoke Gets In Your Eyes
TTITLE6=Alicante
TTITLE7=Don't Say Goodbye
EXTD=YEAR: 1985
EXTT0=
EXTT1=
EXTT2=
EXTT3=
EXTT4=
EXTT5=
EXTT6=
EXTT7=
PLAYORDER=
